<svg width="179" height="25" viewBox="0 0 179 33" fill="none" xmlns="http://www.w3.org/2000/svg">
<mask id="path-1-outside-1_92_20" maskUnits="userSpaceOnUse" x="-1" y="-1" width="181" height="35" fill="black">
<rect fill="white" x="-1" y="-1" width="181" height="35"/>
<path d="M1.19209e-07 32.6V5H4.55V0.449998H9.55V5.5H5.05V14.05H9.05V9.5H13.65V5H18.15V0.449998H23.25V5.5H18.65V10H14.15V14.5H9.55V18.5H14.15V23.05H18.65V27.6H23.25V32.6H18.15V28.1H13.65V23.55H9.05V19H5.05V32.6H1.19209e-07ZM33.8469 32.6V28.1H29.2969V0.449998H34.3469V27.6H47.4469V0.449998H52.5469V28.1H47.9469V32.6H33.8469ZM63.1438 32.6V28.1H58.5938V0.449998H63.6438V27.6H67.6438V18.5H72.2438V5H77.2438V18.5H81.8438V27.6H85.8938V0.449998H90.8938V28.1H86.3938V32.6H81.3438V28.1H76.7438V19H72.7438V28.1H68.1438V32.6H63.1438ZM101.474 32.6V28.1H96.9238V5H101.474V0.449998H115.574V5H120.174V28.1H115.574V32.6H101.474ZM101.974 27.6H115.074V5.5H101.974V27.6ZM126.221 32.6V0.449998H131.271V5H135.771V9.5H140.371V23.05H144.371V0.449998H149.471V32.6H144.371V28.1H139.871V23.55H135.271V10H131.271V32.6H126.221ZM155.518 32.6V9.5H160.068V5H164.568V0.449998H169.668V5H174.168V9.5H178.768V32.6H173.668V23.55H160.568V32.6H155.518ZM160.568 18.5H173.668V10H169.168V5.5H165.068V10H160.568V18.5Z"/>
</mask>
<path d="M1.19209e-07 32.6V5H4.55V0.449998H9.55V5.5H5.05V14.05H9.05V9.5H13.65V5H18.15V0.449998H23.25V5.5H18.65V10H14.15V14.5H9.55V18.5H14.15V23.05H18.65V27.6H23.25V32.6H18.15V28.1H13.65V23.55H9.05V19H5.05V32.6H1.19209e-07ZM33.8469 32.6V28.1H29.2969V0.449998H34.3469V27.6H47.4469V0.449998H52.5469V28.1H47.9469V32.6H33.8469ZM63.1438 32.6V28.1H58.5938V0.449998H63.6438V27.6H67.6438V18.5H72.2438V5H77.2438V18.5H81.8438V27.6H85.8938V0.449998H90.8938V28.1H86.3938V32.6H81.3438V28.1H76.7438V19H72.7438V28.1H68.1438V32.6H63.1438ZM101.474 32.6V28.1H96.9238V5H101.474V0.449998H115.574V5H120.174V28.1H115.574V32.6H101.474ZM101.974 27.6H115.074V5.5H101.974V27.6ZM126.221 32.6V0.449998H131.271V5H135.771V9.5H140.371V23.05H144.371V0.449998H149.471V32.6H144.371V28.1H139.871V23.55H135.271V10H131.271V32.6H126.221ZM155.518 32.6V9.5H160.068V5H164.568V0.449998H169.668V5H174.168V9.5H178.768V32.6H173.668V23.55H160.568V32.6H155.518ZM160.568 18.5H173.668V10H169.168V5.5H165.068V10H160.568V18.5Z" fill="url(#paint0_linear_92_20)"/>
<path d="M0 32.6H-1V33.6H0V32.6ZM0 5V4H-1V5H0ZM4.55 5V6H5.55V5H4.55ZM4.55 0.449998V-0.550002H3.55V0.449998H4.55ZM9.55 0.449998H10.55V-0.550002H9.55V0.449998ZM9.55 5.5V6.5H10.55V5.5H9.55ZM5.05 5.5V4.5H4.05V5.5H5.05ZM5.05 14.05H4.05V15.05H5.05V14.05ZM9.05 14.05V15.05H10.05V14.05H9.05ZM9.05 9.5V8.5H8.05V9.5H9.05ZM13.65 9.5V10.5H14.65V9.5H13.65ZM13.65 5V4H12.65V5H13.65ZM18.15 5V6H19.15V5H18.15ZM18.15 0.449998V-0.550002H17.15V0.449998H18.15ZM23.25 0.449998H24.25V-0.550002H23.25V0.449998ZM23.25 5.5V6.5H24.25V5.5H23.25ZM18.65 5.5V4.5H17.65V5.5H18.65ZM18.65 10V11H19.65V10H18.65ZM14.15 10V9H13.15V10H14.15ZM14.15 14.5V15.5H15.15V14.5H14.15ZM9.55 14.5V13.5H8.55V14.5H9.55ZM9.55 18.5H8.55V19.5H9.55V18.5ZM14.15 18.5H15.15V17.5H14.15V18.5ZM14.15 23.05H13.15V24.05H14.15V23.05ZM18.65 23.05H19.65V22.05H18.65V23.05ZM18.65 27.6H17.65V28.6H18.65V27.6ZM23.25 27.6H24.25V26.6H23.25V27.6ZM23.25 32.6V33.6H24.25V32.6H23.25ZM18.15 32.6H17.15V33.6H18.15V32.6ZM18.15 28.1H19.15V27.1H18.15V28.1ZM13.65 28.1H12.65V29.1H13.65V28.1ZM13.65 23.55H14.65V22.55H13.65V23.55ZM9.05 23.55H8.05V24.55H9.05V23.55ZM9.05 19H10.05V18H9.05V19ZM5.05 19V18H4.05V19H5.05ZM5.05 32.6V33.6H6.05V32.6H5.05ZM1 32.6V5H-1V32.6H1ZM0 6H4.55V4H0V6ZM5.55 5V0.449998H3.55V5H5.55ZM4.55 1.45H9.55V-0.550002H4.55V1.45ZM8.55 0.449998V5.5H10.55V0.449998H8.55ZM9.55 4.5H5.05V6.5H9.55V4.5ZM4.05 5.5V14.05H6.05V5.5H4.05ZM5.05 15.05H9.05V13.05H5.05V15.05ZM10.05 14.05V9.5H8.05V14.05H10.05ZM9.05 10.5H13.65V8.5H9.05V10.5ZM14.65 9.5V5H12.65V9.5H14.65ZM13.65 6H18.15V4H13.65V6ZM19.15 5V0.449998H17.15V5H19.15ZM18.15 1.45H23.25V-0.550002H18.15V1.45ZM22.25 0.449998V5.5H24.25V0.449998H22.25ZM23.25 4.5H18.65V6.5H23.25V4.5ZM17.65 5.5V10H19.65V5.5H17.65ZM18.65 9H14.15V11H18.65V9ZM13.15 10V14.5H15.15V10H13.15ZM14.15 13.5H9.55V15.5H14.15V13.5ZM8.55 14.5V18.5H10.55V14.5H8.55ZM9.55 19.5H14.15V17.5H9.55V19.5ZM13.15 18.5V23.05H15.15V18.5H13.15ZM14.15 24.05H18.65V22.05H14.15V24.05ZM17.65 23.05V27.6H19.65V23.05H17.65ZM18.65 28.6H23.25V26.6H18.65V28.6ZM22.25 27.6V32.6H24.25V27.6H22.25ZM23.25 31.6H18.15V33.6H23.25V31.6ZM19.15 32.6V28.1H17.15V32.6H19.15ZM18.15 27.1H13.65V29.1H18.15V27.1ZM14.65 28.1V23.55H12.65V28.1H14.65ZM13.65 22.55H9.05V24.55H13.65V22.55ZM10.05 23.55V19H8.05V23.55H10.05ZM9.05 18H5.05V20H9.05V18ZM4.05 19V32.6H6.05V19H4.05ZM5.05 31.6H0V33.6H5.05V31.6ZM33.8469 32.6H32.8469V33.6H33.8469V32.6ZM33.8469 28.1H34.8469V27.1H33.8469V28.1ZM29.2969 28.1H28.2969V29.1H29.2969V28.1ZM29.2969 0.449998V-0.550002H28.2969V0.449998H29.2969ZM34.3469 0.449998H35.3469V-0.550002H34.3469V0.449998ZM34.3469 27.6H33.3469V28.6H34.3469V27.6ZM47.4469 27.6V28.6H48.4469V27.6H47.4469ZM47.4469 0.449998V-0.550002H46.4469V0.449998H47.4469ZM52.5469 0.449998H53.5469V-0.550002H52.5469V0.449998ZM52.5469 28.1V29.1H53.5469V28.1H52.5469ZM47.9469 28.1V27.1H46.9469V28.1H47.9469ZM47.9469 32.6V33.6H48.9469V32.6H47.9469ZM34.8469 32.6V28.1H32.8469V32.6H34.8469ZM33.8469 27.1H29.2969V29.1H33.8469V27.1ZM30.2969 28.1V0.449998H28.2969V28.1H30.2969ZM29.2969 1.45H34.3469V-0.550002H29.2969V1.45ZM33.3469 0.449998V27.6H35.3469V0.449998H33.3469ZM34.3469 28.6H47.4469V26.6H34.3469V28.6ZM48.4469 27.6V0.449998H46.4469V27.6H48.4469ZM47.4469 1.45H52.5469V-0.550002H47.4469V1.45ZM51.5469 0.449998V28.1H53.5469V0.449998H51.5469ZM52.5469 27.1H47.9469V29.1H52.5469V27.1ZM46.9469 28.1V32.6H48.9469V28.1H46.9469ZM47.9469 31.6H33.8469V33.6H47.9469V31.6ZM63.1438 32.6H62.1438V33.6H63.1438V32.6ZM63.1438 28.1H64.1438V27.1H63.1438V28.1ZM58.5938 28.1H57.5938V29.1H58.5938V28.1ZM58.5938 0.449998V-0.550002H57.5938V0.449998H58.5938ZM63.6438 0.449998H64.6438V-0.550002H63.6438V0.449998ZM63.6438 27.6H62.6438V28.6H63.6438V27.6ZM67.6438 27.6V28.6H68.6438V27.6H67.6438ZM67.6438 18.5V17.5H66.6438V18.5H67.6438ZM72.2438 18.5V19.5H73.2438V18.5H72.2438ZM72.2438 5V4H71.2438V5H72.2438ZM77.2438 5H78.2438V4H77.2438V5ZM77.2438 18.5H76.2438V19.5H77.2438V18.5ZM81.8438 18.5H82.8438V17.5H81.8438V18.5ZM81.8438 27.6H80.8438V28.6H81.8438V27.6ZM85.8938 27.6V28.6H86.8938V27.6H85.8938ZM85.8938 0.449998V-0.550002H84.8938V0.449998H85.8938ZM90.8938 0.449998H91.8938V-0.550002H90.8938V0.449998ZM90.8938 28.1V29.1H91.8938V28.1H90.8938ZM86.3938 28.1V27.1H85.3938V28.1H86.3938ZM86.3938 32.6V33.6H87.3938V32.6H86.3938ZM81.3438 32.6H80.3438V33.6H81.3438V32.6ZM81.3438 28.1H82.3438V27.1H81.3438V28.1ZM76.7438 28.1H75.7438V29.1H76.7438V28.1ZM76.7438 19H77.7438V18H76.7438V19ZM72.7438 19V18H71.7438V19H72.7438ZM72.7438 28.1V29.1H73.7438V28.1H72.7438ZM68.1438 28.1V27.1H67.1438V28.1H68.1438ZM68.1438 32.6V33.6H69.1438V32.6H68.1438ZM64.1438 32.6V28.1H62.1438V32.6H64.1438ZM63.1438 27.1H58.5938V29.1H63.1438V27.1ZM59.5938 28.1V0.449998H57.5938V28.1H59.5938ZM58.5938 1.45H63.6438V-0.550002H58.5938V1.45ZM62.6438 0.449998V27.6H64.6438V0.449998H62.6438ZM63.6438 28.6H67.6438V26.6H63.6438V28.6ZM68.6438 27.6V18.5H66.6438V27.6H68.6438ZM67.6438 19.5H72.2438V17.5H67.6438V19.5ZM73.2438 18.5V5H71.2438V18.5H73.2438ZM72.2438 6H77.2438V4H72.2438V6ZM76.2438 5V18.5H78.2438V5H76.2438ZM77.2438 19.5H81.8438V17.5H77.2438V19.5ZM80.8438 18.5V27.6H82.8438V18.5H80.8438ZM81.8438 28.6H85.8938V26.6H81.8438V28.6ZM86.8938 27.6V0.449998H84.8938V27.6H86.8938ZM85.8938 1.45H90.8938V-0.550002H85.8938V1.45ZM89.8938 0.449998V28.1H91.8938V0.449998H89.8938ZM90.8938 27.1H86.3938V29.1H90.8938V27.1ZM85.3938 28.1V32.6H87.3938V28.1H85.3938ZM86.3938 31.6H81.3438V33.6H86.3938V31.6ZM82.3438 32.6V28.1H80.3438V32.6H82.3438ZM81.3438 27.1H76.7438V29.1H81.3438V27.1ZM77.7438 28.1V19H75.7438V28.1H77.7438ZM76.7438 18H72.7438V20H76.7438V18ZM71.7438 19V28.1H73.7438V19H71.7438ZM72.7438 27.1H68.1438V29.1H72.7438V27.1ZM67.1438 28.1V32.6H69.1438V28.1H67.1438ZM68.1438 31.6H63.1438V33.6H68.1438V31.6ZM101.474 32.6H100.474V33.6H101.474V32.6ZM101.474 28.1H102.474V27.1H101.474V28.1ZM96.9238 28.1H95.9238V29.1H96.9238V28.1ZM96.9238 5V4H95.9238V5H96.9238ZM101.474 5V6H102.474V5H101.474ZM101.474 0.449998V-0.550002H100.474V0.449998H101.474ZM115.574 0.449998H116.574V-0.550002H115.574V0.449998ZM115.574 5H114.574V6H115.574V5ZM120.174 5H121.174V4H120.174V5ZM120.174 28.1V29.1H121.174V28.1H120.174ZM115.574 28.1V27.1H114.574V28.1H115.574ZM115.574 32.6V33.6H116.574V32.6H115.574ZM101.974 27.6H100.974V28.6H101.974V27.6ZM115.074 27.6V28.6H116.074V27.6H115.074ZM115.074 5.5H116.074V4.5H115.074V5.5ZM101.974 5.5V4.5H100.974V5.5H101.974ZM102.474 32.6V28.1H100.474V32.6H102.474ZM101.474 27.1H96.9238V29.1H101.474V27.1ZM97.9238 28.1V5H95.9238V28.1H97.9238ZM96.9238 6H101.474V4H96.9238V6ZM102.474 5V0.449998H100.474V5H102.474ZM101.474 1.45H115.574V-0.550002H101.474V1.45ZM114.574 0.449998V5H116.574V0.449998H114.574ZM115.574 6H120.174V4H115.574V6ZM119.174 5V28.1H121.174V5H119.174ZM120.174 27.1H115.574V29.1H120.174V27.1ZM114.574 28.1V32.6H116.574V28.1H114.574ZM115.574 31.6H101.474V33.6H115.574V31.6ZM101.974 28.6H115.074V26.6H101.974V28.6ZM116.074 27.6V5.5H114.074V27.6H116.074ZM115.074 4.5H101.974V6.5H115.074V4.5ZM100.974 5.5V27.6H102.974V5.5H100.974ZM126.221 32.6H125.221V33.6H126.221V32.6ZM126.221 0.449998V-0.550002H125.221V0.449998H126.221ZM131.271 0.449998H132.271V-0.550002H131.271V0.449998ZM131.271 5H130.271V6H131.271V5ZM135.771 5H136.771V4H135.771V5ZM135.771 9.5H134.771V10.5H135.771V9.5ZM140.371 9.5H141.371V8.5H140.371V9.5ZM140.371 23.05H139.371V24.05H140.371V23.05ZM144.371 23.05V24.05H145.371V23.05H144.371ZM144.371 0.449998V-0.550002H143.371V0.449998H144.371ZM149.471 0.449998H150.471V-0.550002H149.471V0.449998ZM149.471 32.6V33.6H150.471V32.6H149.471ZM144.371 32.6H143.371V33.6H144.371V32.6ZM144.371 28.1H145.371V27.1H144.371V28.1ZM139.871 28.1H138.871V29.1H139.871V28.1ZM139.871 23.55H140.871V22.55H139.871V23.55ZM135.271 23.55H134.271V24.55H135.271V23.55ZM135.271 10H136.271V9H135.271V10ZM131.271 10V9H130.271V10H131.271ZM131.271 32.6V33.6H132.271V32.6H131.271ZM127.221 32.6V0.449998H125.221V32.6H127.221ZM126.221 1.45H131.271V-0.550002H126.221V1.45ZM130.271 0.449998V5H132.271V0.449998H130.271ZM131.271 6H135.771V4H131.271V6ZM134.771 5V9.5H136.771V5H134.771ZM135.771 10.5H140.371V8.5H135.771V10.5ZM139.371 9.5V23.05H141.371V9.5H139.371ZM140.371 24.05H144.371V22.05H140.371V24.05ZM145.371 23.05V0.449998H143.371V23.05H145.371ZM144.371 1.45H149.471V-0.550002H144.371V1.45ZM148.471 0.449998V32.6H150.471V0.449998H148.471ZM149.471 31.6H144.371V33.6H149.471V31.6ZM145.371 32.6V28.1H143.371V32.6H145.371ZM144.371 27.1H139.871V29.1H144.371V27.1ZM140.871 28.1V23.55H138.871V28.1H140.871ZM139.871 22.55H135.271V24.55H139.871V22.55ZM136.271 23.55V10H134.271V23.55H136.271ZM135.271 9H131.271V11H135.271V9ZM130.271 10V32.6H132.271V10H130.271ZM131.271 31.6H126.221V33.6H131.271V31.6ZM155.518 32.6H154.518V33.6H155.518V32.6ZM155.518 9.5V8.5H154.518V9.5H155.518ZM160.068 9.5V10.5H161.068V9.5H160.068ZM160.068 5V4H159.068V5H160.068ZM164.568 5V6H165.568V5H164.568ZM164.568 0.449998V-0.550002H163.568V0.449998H164.568ZM169.668 0.449998H170.668V-0.550002H169.668V0.449998ZM169.668 5H168.668V6H169.668V5ZM174.168 5H175.168V4H174.168V5ZM174.168 9.5H173.168V10.5H174.168V9.5ZM178.768 9.5H179.768V8.5H178.768V9.5ZM178.768 32.6V33.6H179.768V32.6H178.768ZM173.668 32.6H172.668V33.6H173.668V32.6ZM173.668 23.55H174.668V22.55H173.668V23.55ZM160.568 23.55V22.55H159.568V23.55H160.568ZM160.568 32.6V33.6H161.568V32.6H160.568ZM160.568 18.5H159.568V19.5H160.568V18.5ZM173.668 18.5V19.5H174.668V18.5H173.668ZM173.668 10H174.668V9H173.668V10ZM169.168 10H168.168V11H169.168V10ZM169.168 5.5H170.168V4.5H169.168V5.5ZM165.068 5.5V4.5H164.068V5.5H165.068ZM165.068 10V11H166.068V10H165.068ZM160.568 10V9H159.568V10H160.568ZM156.518 32.6V9.5H154.518V32.6H156.518ZM155.518 10.5H160.068V8.5H155.518V10.5ZM161.068 9.5V5H159.068V9.5H161.068ZM160.068 6H164.568V4H160.068V6ZM165.568 5V0.449998H163.568V5H165.568ZM164.568 1.45H169.668V-0.550002H164.568V1.45ZM168.668 0.449998V5H170.668V0.449998H168.668ZM169.668 6H174.168V4H169.668V6ZM173.168 5V9.5H175.168V5H173.168ZM174.168 10.5H178.768V8.5H174.168V10.5ZM177.768 9.5V32.6H179.768V9.5H177.768ZM178.768 31.6H173.668V33.6H178.768V31.6ZM174.668 32.6V23.55H172.668V32.6H174.668ZM173.668 22.55H160.568V24.55H173.668V22.55ZM159.568 23.55V32.6H161.568V23.55H159.568ZM160.568 31.6H155.518V33.6H160.568V31.6ZM160.568 19.5H173.668V17.5H160.568V19.5ZM174.668 18.5V10H172.668V18.5H174.668ZM173.668 9H169.168V11H173.668V9ZM170.168 10V5.5H168.168V10H170.168ZM169.168 4.5H165.068V6.5H169.168V4.5ZM164.068 5.5V10H166.068V5.5H164.068ZM165.068 9H160.568V11H165.068V9ZM159.568 10V18.5H161.568V10H159.568Z" fill="#2D677B" mask="url(#path-1-outside-1_92_20)"/>
<defs>
<linearGradient id="paint0_linear_92_20" x1="-3" y1="5.5" x2="196" y2="5.5" gradientUnits="userSpaceOnUse">
<stop stop-color="#001B1B"/>
<stop offset="0.5" stop-color="#004E4E"/>
<stop offset="1" stop-color="#008181"/>
</linearGradient>
</defs>
</svg>
